<svg width="40" height="31" viewBox="0 0 40 31" fill="none" xmlns="http://www.w3.org/2000/svg">
<path d="M5.49902 0.145142C5.13965 0.309204 4.88184 0.567017 4.76465 0.879517C4.64746 1.19202 4.64746 23.1764 4.76465 23.4889C4.87402 23.7936 5.28809 24.1998 5.56934 24.2858C5.70215 24.3326 6.4834 24.403 7.2959 24.4498C11.9912 24.7233 15.585 26.0905 18.3428 28.6373L18.8975 29.153V17.692C18.8975 7.22327 18.8896 6.21545 18.7725 5.98889C18.2959 5.06702 16.749 3.40295 15.6475 2.63733C13.7021 1.27014 11.2256 0.426392 8.27246 0.113892C6.74121 -0.0501709 5.89746 -0.0345459 5.49902 0.145142Z" fill="#FFDC33"/>
<path d="M31.6318 0.113892C28.7568 0.434204 26.2412 1.30139 24.3506 2.6217C23.2334 3.40295 21.6943 5.0592 21.21 5.98889C21.0928 6.21545 21.085 7.22327 21.085 17.692V29.153L21.6396 28.6373C24.3975 26.0905 27.9912 24.7233 32.6865 24.4498C33.5068 24.403 34.2803 24.3326 34.4131 24.2858C34.6943 24.1998 35.1084 23.7936 35.2178 23.4889C35.335 23.1764 35.335 1.19202 35.2178 0.879517C35.1006 0.567017 34.8428 0.309204 34.4834 0.145142C34.1084 -0.0267334 33.0381 -0.0423584 31.6318 0.113892Z" fill="#FFDC33"/>
<path d="M1.00661 5.01233C0.615981 5.1217 0.319106 5.35608 0.147231 5.70764C-0.00901899 6.00452 -0.00901899 6.16858 0.00660601 17.8795L0.0300435 29.7545L0.194106 29.9733C0.420669 30.2701 0.811293 30.528 1.14723 30.5905C1.34254 30.6295 1.90504 30.5514 2.92067 30.3561C5.74879 29.817 7.81911 29.6061 10.4363 29.6061C12.8347 29.6061 14.5847 29.7936 16.7488 30.2701C16.9754 30.317 16.9597 30.3014 16.5691 29.9264C15.6082 29.0123 13.8191 28.0201 12.1394 27.4733C10.4441 26.9186 9.04567 26.6842 6.82692 26.5592C5.99879 26.5201 5.28786 26.442 5.10036 26.3717C3.91286 25.9576 3.13942 25.1998 2.67848 24.0123C2.53786 23.6451 2.53004 23.2076 2.50661 14.2701L2.48317 4.91858L1.88161 4.92639C1.55348 4.92639 1.15504 4.96545 1.00661 5.01233Z" fill="#FFDC33"/>
<path d="M37.4749 14.2701C37.4515 23.2076 37.4436 23.6451 37.303 24.0123C36.8421 25.1998 36.0686 25.9576 34.8811 26.3717C34.6936 26.442 33.9827 26.5201 33.1546 26.5592C29.5374 26.7545 26.8265 27.5358 24.5921 29.0201C23.6858 29.6217 22.8811 30.3483 23.1936 30.278C25.2171 29.817 27.1858 29.6061 29.5374 29.6061C32.1624 29.6061 34.2327 29.817 37.0608 30.3561C38.0765 30.5514 38.639 30.6295 38.8343 30.5905C39.1702 30.528 39.5608 30.2701 39.7874 29.9733L39.9515 29.7545L39.9749 17.8795C39.9905 6.16858 39.9905 6.00452 39.8343 5.70764C39.553 5.14514 39.0374 4.91858 38.0608 4.91858H37.4983L37.4749 14.2701Z" fill="#FFDC33"/>
</svg>
