<svg width="40" height="30" viewBox="0 0 40 30" fill="none" xmlns="http://www.w3.org/2000/svg">
<path d="M4.85261 0.0571904C3.34446 0.359482 1.96134 1.26636 1.09395 2.53121C0.679797 3.13579 0.250012 4.09835 0.218755 4.51202L0.195312 4.77453L10.1116 10.9238L20.0201 17.081L21.1297 16.3969C21.7314 16.023 26.1856 13.2546 31.0226 10.2476L39.8136 4.76658L39.7902 4.51202C39.7589 4.09835 39.3292 3.13579 38.915 2.53121C38.1648 1.44932 37.0943 0.653819 35.7502 0.192426L35.2032 0.00946014L20.1998 0.0015051C11.8776 -0.00644995 5.04016 0.0174152 4.85261 0.0571904Z" fill="#FFDC33"/>
<path d="M0 16.6276C0 24.6144 0.00781426 24.861 0.156285 25.4736C0.695469 27.6135 2.28176 29.2602 4.37599 29.8568C4.86047 29.992 5.61064 30 20.0045 30C34.3984 30 35.1486 29.992 35.633 29.8568C37.7351 29.2522 39.3214 27.6055 39.8527 25.4656C40.009 24.8451 40.009 24.6224 39.9934 16.6276L39.97 8.42591L30.6319 14.2251C25.4979 17.4151 21.122 20.1119 20.9032 20.2232C20.4656 20.438 19.7545 20.4778 19.2934 20.3187C19.0902 20.2471 9.34586 14.2331 0.53137 8.73616L0 8.40205V16.6276Z" fill="#FFDC33"/>
</svg>
