<svg width="80" height="60" viewBox="0 0 80 60" fill="none" xmlns="http://www.w3.org/2000/svg">
<path d="M9.70312 0.640625C6.6875 1.23438 3.92188 3.01562 2.1875 5.5C1.35938 6.6875 0.5 8.57812 0.4375 9.39062L0.390625 9.90625L20.2188 21.9844L40.0312 34.0781L42.25 32.7344C43.4531 32 52.3594 26.5625 62.0312 20.6562L79.6094 9.89062L79.5625 9.39062C79.5 8.57812 78.6406 6.6875 77.8125 5.5C76.3125 3.375 74.1719 1.8125 71.4844 0.90625L70.3906 0.546875L40.3906 0.53125C23.75 0.515625 10.0781 0.5625 9.70312 0.640625Z" fill="#FFDC33"/>
<path d="M0 33.1875C0 48.875 0.015625 49.3594 0.3125 50.5625C1.39062 54.7656 4.5625 58 8.75 59.1719C9.71875 59.4375 11.2188 59.4531 40 59.4531C68.7812 59.4531 70.2812 59.4375 71.25 59.1719C75.4531 57.9844 78.625 54.75 79.6875 50.5469C80 49.3281 80 48.8906 79.9688 33.1875L79.9219 17.0781L61.25 28.4688C50.9844 34.7344 42.2344 40.0312 41.7969 40.25C40.9219 40.6719 39.5 40.75 38.5781 40.4375C38.1719 40.2969 18.6875 28.4844 1.0625 17.6875L0 17.0312V33.1875Z" fill="#FFDC33"/>
</svg>
