<svg width="40" height="40" viewBox="0 0 40 40" fill="none" xmlns="http://www.w3.org/2000/svg">
<path d="M17.4668 0.0889282C13.9121 0.549866 10.7168 1.86237 7.79492 4.04987C6.95117 4.68268 4.99805 6.58893 4.33398 7.43268C2.11523 10.2374 0.716797 13.4327 0.146484 16.9639C-0.0488281 18.1905 -0.0488281 21.753 0.146484 22.9796C0.849609 27.3389 2.73242 31.0264 5.81836 34.1202C8.92773 37.2217 12.4902 39.0342 16.9746 39.7921C18.1855 39.9952 21.7402 39.9952 22.9746 39.7921C27.209 39.0889 30.8418 37.2921 33.8652 34.3858C35.0762 33.2217 36.4355 31.5421 37.0527 30.4405C37.1699 30.2452 37.3574 29.9327 37.4746 29.7374C37.834 29.1592 38.6309 27.3467 38.959 26.3546C39.3184 25.2842 39.584 24.1983 39.7871 22.9796C39.9902 21.753 39.9902 18.2061 39.7871 16.9639C39.2012 13.4171 38.0059 10.6436 35.7871 7.66705C35.1855 6.85455 33.1621 4.83112 32.3105 4.18268C29.459 2.0108 26.4902 0.729553 23.0293 0.159241C21.9746 -0.0126343 18.5684 -0.0595093 17.4668 0.0889282ZM16.3574 9.65924C17.6543 10.0186 19.1074 11.0342 19.834 12.0811L19.9668 12.2686L20.0996 12.0811C20.8262 11.0264 22.2715 10.0264 23.6152 9.64362C24.5293 9.3858 25.998 9.40143 26.9434 9.69049C29.248 10.378 30.8496 12.0733 31.5527 14.5421C31.748 15.2452 31.8184 17.003 31.6855 17.8546C31.3418 20.0108 29.9355 22.1436 27.2246 24.6592C25.3809 26.3624 20.7324 30.3077 20.4434 30.4092C19.6777 30.6827 19.584 30.628 16.6699 28.128C12.4121 24.4717 11.1309 23.2452 10.0059 21.7296C9.0918 20.503 8.44336 19.0811 8.24805 17.8467C8.10742 16.9874 8.18555 15.1671 8.38867 14.503C9.00586 12.4561 10.2012 10.9561 11.8809 10.1046C12.3418 9.87018 13.248 9.58893 13.8184 9.49518C14.4355 9.40143 15.7168 9.47955 16.3574 9.65924Z" fill="#FFDC33"/>
</svg>
