<svg width="19" height="37" viewBox="0 0 19 37" fill="none" xmlns="http://www.w3.org/2000/svg">
<path d="M8.25316 0.0289197C8.17498 0.0502426 7.85514 0.114211 7.5424 0.171073C4.84149 0.689931 2.36092 2.56635 1.05311 5.08246C-0.325769 7.73361 -0.3542 11.0813 0.989146 13.7396C1.5933 14.9479 2.68787 16.2486 3.80378 17.0873C4.57851 17.663 5.72995 18.2529 6.65394 18.5372L7.36471 18.7647V26.6115C7.36471 34.8848 7.36471 34.8706 7.69166 35.3824C8.11812 36.0576 8.69384 36.3774 9.497 36.3774C10.7764 36.3774 11.6293 35.4534 11.6293 34.0746V33.6765H13.0153C14.6003 33.6765 14.977 33.6197 15.3608 33.3069C15.9579 32.8094 16.0503 32.0205 15.5812 31.3808C15.4106 31.1462 14.8064 30.8335 14.5221 30.8335C14.3089 30.8335 14.0459 30.7198 13.9606 30.5918C13.9322 30.5492 13.9037 30.272 13.9037 29.9734C13.9037 29.3195 13.9819 29.2271 14.579 29.1276C14.8064 29.0921 15.112 28.9784 15.2542 28.886C16.1569 28.2889 16.0503 26.9314 15.0765 26.4907C14.8277 26.377 14.5932 26.3557 13.2143 26.3557H11.6293V22.5602V18.7647L12.3401 18.5372C15.1405 17.6701 17.4789 15.4312 18.4455 12.6876C19.4904 9.71665 19.0426 6.47556 17.2372 3.94523C15.8583 2.01906 13.8469 0.697039 11.4871 0.163965C10.9683 0.043135 8.59433 -0.0492645 8.25316 0.0289197ZM10.5489 4.29351C12.7878 4.75551 14.5221 6.65325 14.7424 8.88505C15.0054 11.4793 13.4631 13.768 10.9185 14.5641C10.4779 14.7062 10.2291 14.7346 9.497 14.7346C8.53747 14.7346 7.94754 14.5996 7.18702 14.2229C3.98857 12.6166 3.21384 8.45148 5.63755 5.87852C6.93114 4.50674 8.7507 3.92391 10.5489 4.29351Z" fill="#FFDC33"/>
</svg>
