<svg width="169" height="43" viewBox="0 0 169 43" fill="none" xmlns="http://www.w3.org/2000/svg">
<path d="M59.6504 16.0215C59.6504 14.5234 59.9255 13.1523 60.4756 11.9082C61.0257 10.6641 61.7959 9.59766 62.7861 8.70898C63.7848 7.81185 64.9782 7.11784 66.3662 6.62695C67.7627 6.13607 69.3073 5.89062 71 5.89062C72.6842 5.89062 74.2246 6.13607 75.6211 6.62695C77.0176 7.11784 78.2109 7.81185 79.2012 8.70898C80.1999 9.59766 80.9743 10.6641 81.5244 11.9082C82.0745 13.1523 82.3496 14.5234 82.3496 16.0215C82.3496 17.528 82.0745 18.9118 81.5244 20.1729C80.9743 21.4255 80.1999 22.5046 79.2012 23.4102C78.2109 24.3158 77.0176 25.0225 75.6211 25.5303C74.2246 26.0296 72.6842 26.2793 71 26.2793C69.3073 26.2793 67.7627 26.0296 66.3662 25.5303C64.9782 25.0225 63.7848 24.3158 62.7861 23.4102C61.7959 22.5046 61.0257 21.4255 60.4756 20.1729C59.9255 18.9118 59.6504 17.528 59.6504 16.0215ZM63.6748 16.0215C63.6748 17.0456 63.8568 17.9681 64.2207 18.7891C64.5931 19.61 65.1051 20.3125 65.7568 20.8965C66.417 21.472 67.1914 21.9163 68.0801 22.2295C68.9772 22.5426 69.9505 22.6992 71 22.6992C72.0495 22.6992 73.0186 22.5426 73.9072 22.2295C74.8044 21.9163 75.5788 21.472 76.2305 20.8965C76.8822 20.3125 77.3942 19.61 77.7666 18.7891C78.139 17.9681 78.3252 17.0456 78.3252 16.0215C78.3252 14.9974 78.139 14.0791 77.7666 13.2666C77.3942 12.4541 76.8822 11.7686 76.2305 11.21C75.5788 10.6429 74.8044 10.2113 73.9072 9.91504C73.0186 9.61882 72.0495 9.4707 71 9.4707C69.9505 9.4707 68.9772 9.61882 68.0801 9.91504C67.1914 10.2113 66.417 10.6429 65.7568 11.21C65.1051 11.7686 64.5931 12.4541 64.2207 13.2666C63.8568 14.0791 63.6748 14.9974 63.6748 16.0215ZM66.2773 2.62793L74.834 0.228516L75.7227 3.37695L67.0645 5.39551L66.2773 2.62793ZM86.4502 4.93848H90.208V26H86.4502V4.93848ZM94.3213 18.459C94.3213 17.4434 94.5286 16.4743 94.9434 15.5518C95.3581 14.6208 95.9548 13.7998 96.7334 13.0889C97.512 12.3779 98.4642 11.8109 99.5898 11.3877C100.724 10.9645 102.01 10.7529 103.449 10.7529C104.88 10.7529 106.166 10.9688 107.309 11.4004C108.46 11.8236 109.433 12.4076 110.229 13.1523C111.033 13.8971 111.646 14.7731 112.069 15.7803C112.501 16.7874 112.717 17.8665 112.717 19.0176C112.717 19.1615 112.713 19.318 112.704 19.4873C112.704 19.6481 112.696 19.7962 112.679 19.9316H98.5107C98.6715 20.3802 98.9297 20.7907 99.2852 21.1631C99.6491 21.5355 100.102 21.8571 100.644 22.1279C101.185 22.3988 101.812 22.6104 102.522 22.7627C103.233 22.9066 104.021 22.9785 104.884 22.9785C105.747 22.9785 106.606 22.8896 107.461 22.7119C108.316 22.5257 109.132 22.293 109.911 22.0137L111.181 24.8828C110.69 25.1113 110.19 25.3145 109.683 25.4922C109.183 25.6615 108.659 25.8053 108.108 25.9238C107.567 26.0339 106.995 26.1185 106.395 26.1777C105.802 26.237 105.176 26.2666 104.516 26.2666C102.831 26.2666 101.354 26.0635 100.085 25.6572C98.8154 25.251 97.7533 24.6966 96.8984 23.9941C96.0436 23.2917 95.4004 22.4665 94.9688 21.5186C94.5371 20.5706 94.3213 19.5508 94.3213 18.459ZM108.73 16.999C108.595 16.5843 108.383 16.1992 108.096 15.8438C107.816 15.4798 107.465 15.1667 107.042 14.9043C106.619 14.6335 106.128 14.4219 105.569 14.2695C105.011 14.1172 104.397 14.041 103.729 14.041C103.018 14.041 102.37 14.1214 101.786 14.2822C101.202 14.443 100.69 14.6589 100.25 14.9297C99.8099 15.2005 99.4417 15.5137 99.1455 15.8691C98.8577 16.2246 98.6462 16.6012 98.5107 16.999H108.73ZM115.865 18.5098C115.865 17.4349 116.081 16.4277 116.513 15.4883C116.953 14.5488 117.575 13.7279 118.379 13.0254C119.191 12.3229 120.169 11.7686 121.312 11.3623C122.463 10.9561 123.753 10.7529 125.184 10.7529C126.614 10.7529 127.9 10.9561 129.043 11.3623C130.194 11.7686 131.172 12.3229 131.976 13.0254C132.788 13.7279 133.41 14.5488 133.842 15.4883C134.282 16.4277 134.502 17.4349 134.502 18.5098C134.502 19.5846 134.282 20.5918 133.842 21.5312C133.41 22.4707 132.788 23.2917 131.976 23.9941C131.172 24.6966 130.194 25.251 129.043 25.6572C127.9 26.0635 126.614 26.2666 125.184 26.2666C123.753 26.2666 122.463 26.0635 121.312 25.6572C120.169 25.251 119.191 24.6966 118.379 23.9941C117.575 23.2917 116.953 22.4707 116.513 21.5312C116.081 20.5918 115.865 19.5846 115.865 18.5098ZM119.813 18.5098C119.813 19.1107 119.932 19.682 120.169 20.2236C120.414 20.7568 120.766 21.2308 121.223 21.6455C121.688 22.0518 122.251 22.3776 122.911 22.623C123.58 22.86 124.337 22.9785 125.184 22.9785C126.03 22.9785 126.783 22.86 127.443 22.623C128.112 22.3776 128.675 22.0518 129.132 21.6455C129.597 21.2308 129.949 20.7568 130.186 20.2236C130.431 19.682 130.554 19.1107 130.554 18.5098C130.554 17.9089 130.431 17.3376 130.186 16.7959C129.949 16.2542 129.597 15.7803 129.132 15.374C128.675 14.9593 128.112 14.6335 127.443 14.3965C126.783 14.151 126.03 14.0283 125.184 14.0283C124.337 14.0283 123.58 14.151 122.911 14.3965C122.251 14.6335 121.688 14.9593 121.223 15.374C120.766 15.7803 120.414 16.2542 120.169 16.7959C119.932 17.3376 119.813 17.9089 119.813 18.5098Z" fill="white"/>
<g clip-path="url(#clip0_173_1292)">
<path d="M57.7818 0.806284C55.9219 1.28365 54.1608 2.01134 52.5396 2.94861C51.1162 3.77236 49.8005 4.75911 48.6129 5.88267C47.1488 7.27111 45.8826 8.86621 44.8639 10.6243C43.0825 13.7068 42.0608 17.2871 42.0608 21.1031V42.0607H31.582V21.1031C31.582 17.4297 32.2137 13.9019 33.3722 10.6243H10.6245V2.94861C13.707 1.16722 17.2873 0.145538 21.1033 0.145538H57.4093C57.5344 0.363846 57.6596 0.585065 57.7818 0.806284Z" fill="#FFD856" stroke="black" stroke-miterlimit="10"/>
<path d="M39.2576 10.6243C37.415 7.44285 34.7633 4.79113 31.5819 2.94861C28.4993 1.16722 24.9191 0.145538 21.1031 0.145538C19.2955 0.145538 17.5432 0.375489 15.8695 0.806284H15.8666C14.0066 1.28365 12.2456 2.01134 10.6243 2.94861C9.20092 3.77236 7.88525 4.75911 6.69766 5.88267C5.23354 7.27111 3.96735 8.86621 2.94858 10.6243C1.16719 13.7068 0.145508 17.2871 0.145508 21.1031C0.145508 24.9191 1.16719 28.4994 2.94858 31.5819C3.96735 33.34 5.23354 34.9351 6.69766 36.3235C7.88525 37.4471 9.20092 38.4338 10.6243 39.2576C12.2456 40.1949 14.0066 40.9226 15.8666 41.3999H15.8695C17.5432 41.8307 19.2955 42.0607 21.1031 42.0607C24.9191 42.0607 28.4993 41.039 31.5819 39.2576C34.7633 37.4151 37.415 34.7634 39.2576 31.5819C41.039 28.4994 42.0606 24.9191 42.0606 21.1031C42.0606 17.2871 41.039 13.7068 39.2576 10.6243ZM19.7816 31.5819C19.7874 31.5557 19.7961 31.5295 19.802 31.5004C14.6295 30.86 10.6243 26.4473 10.6243 21.1031C10.6243 15.7589 14.6295 11.3462 19.802 10.7058C19.7961 10.6767 19.7874 10.6505 19.7816 10.6243H21.1031C26.8897 10.6243 31.5819 15.3165 31.5819 21.1031C31.5819 26.8897 26.8897 31.5819 21.1031 31.5819H19.7816Z" fill="#FFDC33" stroke="black" stroke-miterlimit="10"/>
</g>
<defs>
<clipPath id="clip0_173_1292">
<rect width="58" height="42.2062" fill="white"/>
</clipPath>
</defs>
</svg>
