<svg width="48" height="35" viewBox="0 0 48 35" fill="none" xmlns="http://www.w3.org/2000/svg">
<g clip-path="url(#clip0_526_54)">
<path d="M47.3058 0.660107C45.7831 1.05093 44.3413 1.64669 43.014 2.41403C41.8487 3.08843 40.7715 3.89628 39.7993 4.81613C38.6006 5.95284 37.564 7.25875 36.7299 8.69811C35.2715 11.2218 34.4351 14.1529 34.4351 17.2771V34.435H25.8561V17.2771C25.8561 14.2697 26.3732 11.3814 27.3217 8.69811H8.69824V2.41403C11.2219 0.955604 14.153 0.119156 17.2772 0.119156H47.0008C47.1033 0.297884 47.2057 0.478995 47.3058 0.660107Z" fill="#FFD856" stroke="black" stroke-miterlimit="10"/>
<path d="M32.14 8.69811C30.6316 6.09344 28.4606 3.92249 25.856 2.41403C23.3323 0.955604 20.4012 0.119156 17.277 0.119156C15.7972 0.119156 14.3626 0.307416 12.9923 0.660107H12.9899C11.4672 1.05093 10.0254 1.64669 8.69808 2.41403C7.53278 3.08843 6.45564 3.89628 5.48336 4.81613C4.28469 5.95284 3.24807 7.25875 2.41401 8.69811C0.955588 11.2218 0.119141 14.1529 0.119141 17.2771C0.119141 20.4012 0.955588 23.3324 2.41401 25.856C3.24807 27.2954 4.28469 28.6013 5.48336 29.738C6.45564 30.6578 7.53278 31.4657 8.69808 32.1401C10.0254 32.9074 11.4672 33.5032 12.9899 33.894H12.9923C14.3626 34.2467 15.7972 34.435 17.277 34.435C20.4012 34.435 23.3323 33.5985 25.856 32.1401C28.4606 30.6316 30.6316 28.4607 32.14 25.856C33.5985 23.3324 34.4349 20.4012 34.4349 17.2771C34.4349 14.1529 33.5985 11.2218 32.14 8.69811ZM16.1951 25.856C16.1999 25.8346 16.207 25.8131 16.2118 25.7893C11.9771 25.265 8.69808 21.6523 8.69808 17.2771C8.69808 12.9018 11.9771 9.2891 16.2118 8.76484C16.207 8.741 16.1999 8.71956 16.1951 8.69811H17.277C22.0145 8.69811 25.856 12.5396 25.856 17.2771C25.856 22.0146 22.0145 25.856 17.277 25.856H16.1951Z" fill="#FFDC33" stroke="black" stroke-miterlimit="10"/>
</g>
<defs>
<clipPath id="clip0_526_54">
<rect width="47.4844" height="34.5541" fill="white"/>
</clipPath>
</defs>
</svg>
